<svg id="visual" viewBox="0 0 960 540" width="960" height="540" xmlns="http://www.w3.org/2000/svg" xmlns:xlink="http://www.w3.org/1999/xlink" version="1.1"><rect x="0" y="0" width="960" height="540" fill="#e79c2a"></rect><path d="M0 160L22.8 165.8C45.7 171.7 91.3 183.3 137 186.3C182.7 189.3 228.3 183.7 274 179.7C319.7 175.7 365.3 173.3 411.2 173.3C457 173.3 503 175.7 548.8 169.8C594.7 164 640.3 150 686 148.7C731.7 147.3 777.3 158.7 823 161.5C868.7 164.3 914.3 158.7 937.2 155.8L960 153L960 0L937.2 0C914.3 0 868.7 0 823 0C777.3 0 731.7 0 686 0C640.3 0 594.7 0 548.8 0C503 0 457 0 411.2 0C365.3 0 319.7 0 274 0C228.3 0 182.7 0 137 0C91.3 0 45.7 0 22.8 0L0 0Z" fill="#e79c2a"></path><path d="M0 149L22.8 147.2C45.7 145.3 91.3 141.7 137 140C182.7 138.3 228.3 138.7 274 142.2C319.7 145.7 365.3 152.3 411.2 153.5C457 154.7 503 150.3 548.8 153.7C594.7 157 640.3 168 686 161.7C731.7 155.3 777.3 131.7 823 126.2C868.7 120.7 914.3 133.3 937.2 139.7L960 146L960 0L937.2 0C914.3 0 868.7 0 823 0C777.3 0 731.7 0 686 0C640.3 0 594.7 0 548.8 0C503 0 457 0 411.2 0C365.3 0 319.7 0 274 0C228.3 0 182.7 0 137 0C91.3 0 45.7 0 22.8 0L0 0Z" fill="#ed6b53"></path><path d="M0 96L22.8 102.8C45.7 109.7 91.3 123.3 137 125.5C182.7 127.7 228.3 118.3 274 117.3C319.7 116.3 365.3 123.7 411.2 125C457 126.3 503 121.7 548.8 119.2C594.7 116.7 640.3 116.3 686 109.8C731.7 103.3 777.3 90.7 823 92C868.7 93.3 914.3 108.7 937.2 116.3L960 124L960 0L937.2 0C914.3 0 868.7 0 823 0C777.3 0 731.7 0 686 0C640.3 0 594.7 0 548.8 0C503 0 457 0 411.2 0C365.3 0 319.7 0 274 0C228.3 0 182.7 0 137 0C91.3 0 45.7 0 22.8 0L0 0Z" fill="#cd4d79"></path><path d="M0 72L22.8 72.5C45.7 73 91.3 74 137 74.3C182.7 74.7 228.3 74.3 274 73.2C319.7 72 365.3 70 411.2 66.5C457 63 503 58 548.8 56.5C594.7 55 640.3 57 686 56.8C731.7 56.7 777.3 54.3 823 61C868.7 67.7 914.3 83.3 937.2 91.2L960 99L960 0L937.2 0C914.3 0 868.7 0 823 0C777.3 0 731.7 0 686 0C640.3 0 594.7 0 548.8 0C503 0 457 0 411.2 0C365.3 0 319.7 0 274 0C228.3 0 182.7 0 137 0C91.3 0 45.7 0 22.8 0L0 0Z" fill="#8e4a8f"></path><path d="M0 50L22.8 48.5C45.7 47 91.3 44 137 45C182.7 46 228.3 51 274 54.3C319.7 57.7 365.3 59.3 411.2 55C457 50.7 503 40.3 548.8 34.2C594.7 28 640.3 26 686 28.7C731.7 31.3 777.3 38.7 823 45.3C868.7 52 914.3 58 937.2 61L960 64L960 0L937.2 0C914.3 0 868.7 0 823 0C777.3 0 731.7 0 686 0C640.3 0 594.7 0 548.8 0C503 0 457 0 411.2 0C365.3 0 319.7 0 274 0C228.3 0 182.7 0 137 0C91.3 0 45.7 0 22.8 0L0 0Z" fill="#394989"></path></svg>