<svg id="visual" viewBox="0 0 900 450" width="900" height="450" xmlns="http://www.w3.org/2000/svg" xmlns:xlink="http://www.w3.org/1999/xlink" version="1.1"><g stroke-width="1" stroke-linejoin="bevel"><path d="M490 234.9L499 268.1L501.3 252.1Z" fill="#b74a85" stroke="#b74a85"></path><path d="M490 234.9L481.3 283.4L499 268.1Z" fill="#e79c2a" stroke="#e79c2a"></path><path d="M501.3 252.1L513.3 199.9L490 234.9Z" fill="#9c498d" stroke="#9c498d"></path><path d="M588.6 180.6L513.3 199.9L501.3 252.1Z" fill="#ee744a" stroke="#ee744a"></path><path d="M400.7 196.9L481.3 283.4L490 234.9Z" fill="#7f4a90" stroke="#7f4a90"></path><path d="M400.7 196.9L411.7 308.4L481.3 283.4Z" fill="#ee744a" stroke="#ee744a"></path><path d="M486 160.6L400.7 196.9L490 234.9Z" fill="#cd4d79" stroke="#cd4d79"></path><path d="M513.3 199.9L486 160.6L490 234.9Z" fill="#e79c2a" stroke="#e79c2a"></path><path d="M411.7 308.4L501 361.4L481.3 283.4Z" fill="#e79c2a" stroke="#e79c2a"></path><path d="M481.3 283.4L532.3 355.7L499 268.1Z" fill="#9c498d" stroke="#9c498d"></path><path d="M499 268.1L577.6 312.4L501.3 252.1Z" fill="#7f4a90" stroke="#7f4a90"></path><path d="M501 361.4L532.3 355.7L481.3 283.4Z" fill="#9c498d" stroke="#9c498d"></path><path d="M532.3 355.7L577.6 312.4L499 268.1Z" fill="#ee744a" stroke="#ee744a"></path><path d="M400.7 196.9L359.7 307.1L411.7 308.4Z" fill="#e9635b" stroke="#e9635b"></path><path d="M411.7 308.4L421.7 405.7L501 361.4Z" fill="#de556b" stroke="#de556b"></path><path d="M599.9 365.7L595.9 297.1L577.6 312.4Z" fill="#ee8739" stroke="#ee8739"></path><path d="M577.6 312.4L595.9 297.1L501.3 252.1Z" fill="#e79c2a" stroke="#e79c2a"></path><path d="M513.3 199.9L569.6 156.9L486 160.6Z" fill="#7f4a90" stroke="#7f4a90"></path><path d="M627.6 246.1L588.6 180.6L501.3 252.1Z" fill="#e9635b" stroke="#e9635b"></path><path d="M588.6 180.6L569.6 156.9L513.3 199.9Z" fill="#e9635b" stroke="#e9635b"></path><path d="M595.9 297.1L627.6 246.1L501.3 252.1Z" fill="#7f4a90" stroke="#7f4a90"></path><path d="M408 407.7L421.7 405.7L411.7 308.4Z" fill="#9c498d" stroke="#9c498d"></path><path d="M543.6 450L599.9 365.7L532.3 355.7Z" fill="#5e4a8f" stroke="#5e4a8f"></path><path d="M532.3 355.7L599.9 365.7L577.6 312.4Z" fill="#cd4d79" stroke="#cd4d79"></path><path d="M673.1 275.1L663.9 233.9L627.6 246.1Z" fill="#b74a85" stroke="#b74a85"></path><path d="M543.6 450L532.3 355.7L501 361.4Z" fill="#7f4a90" stroke="#7f4a90"></path><path d="M332.4 343.7L408 407.7L411.7 308.4Z" fill="#ee744a" stroke="#ee744a"></path><path d="M359.7 307.1L332.4 343.7L411.7 308.4Z" fill="#394989" stroke="#394989"></path><path d="M298.1 315.4L332.4 343.7L359.7 307.1Z" fill="#e9635b" stroke="#e9635b"></path><path d="M587.6 62.3L532.3 98.6L569.6 156.9Z" fill="#b74a85" stroke="#b74a85"></path><path d="M569.6 156.9L532.3 98.6L486 160.6Z" fill="#e79c2a" stroke="#e79c2a"></path><path d="M486 160.6L388.7 108.6L400.7 196.9Z" fill="#ee8739" stroke="#ee8739"></path><path d="M532.3 98.6L388.7 108.6L486 160.6Z" fill="#de556b" stroke="#de556b"></path><path d="M283.4 246.1L301.4 297.4L359.7 307.1Z" fill="#7f4a90" stroke="#7f4a90"></path><path d="M293.1 218.1L359.7 307.1L400.7 196.9Z" fill="#9c498d" stroke="#9c498d"></path><path d="M285.4 149.9L293.1 218.1L400.7 196.9Z" fill="#e79c2a" stroke="#e79c2a"></path><path d="M254.1 240.9L298.1 315.4L301.4 297.4Z" fill="#e79c2a" stroke="#e79c2a"></path><path d="M301.4 297.4L298.1 315.4L359.7 307.1Z" fill="#b74a85" stroke="#b74a85"></path><path d="M352.7 450L436 450L408 407.7Z" fill="#b74a85" stroke="#b74a85"></path><path d="M673.1 275.1L627.6 246.1L595.9 297.1Z" fill="#e79c2a" stroke="#e79c2a"></path><path d="M627.6 246.1L663.9 233.9L588.6 180.6Z" fill="#5e4a8f" stroke="#5e4a8f"></path><path d="M588.6 180.6L644.9 129.6L569.6 156.9Z" fill="#394989" stroke="#394989"></path><path d="M293.1 218.1L283.4 246.1L359.7 307.1Z" fill="#ee744a" stroke="#ee744a"></path><path d="M436 450L472.3 450L421.7 405.7Z" fill="#e9635b" stroke="#e9635b"></path><path d="M421.7 405.7L472.3 450L501 361.4Z" fill="#e9635b" stroke="#e9635b"></path><path d="M408 407.7L436 450L421.7 405.7Z" fill="#7f4a90" stroke="#7f4a90"></path><path d="M352.7 450L408 407.7L332.4 343.7Z" fill="#e79c2a" stroke="#e79c2a"></path><path d="M685.1 333.4L673.1 275.1L595.9 297.1Z" fill="#5e4a8f" stroke="#5e4a8f"></path><path d="M472.3 450L543.6 450L501 361.4Z" fill="#e9635b" stroke="#e9635b"></path><path d="M599.9 365.7L667.9 367.4L595.9 297.1Z" fill="#b74a85" stroke="#b74a85"></path><path d="M685.1 160.9L588.6 180.6L663.9 233.9Z" fill="#394989" stroke="#394989"></path><path d="M685.1 160.9L644.9 129.6L588.6 180.6Z" fill="#5e4a8f" stroke="#5e4a8f"></path><path d="M388.7 108.6L285.4 149.9L400.7 196.9Z" fill="#ee744a" stroke="#ee744a"></path><path d="M293.1 218.1L254.1 240.9L283.4 246.1Z" fill="#9c498d" stroke="#9c498d"></path><path d="M587.6 62.3L513.3 39.3L532.3 98.6Z" fill="#b74a85" stroke="#b74a85"></path><path d="M532.3 98.6L513.3 39.3L388.7 108.6Z" fill="#de556b" stroke="#de556b"></path><path d="M388.7 108.6L290.4 130.6L285.4 149.9Z" fill="#5e4a8f" stroke="#5e4a8f"></path><path d="M543.6 450L616.6 426.7L599.9 365.7Z" fill="#de556b" stroke="#de556b"></path><path d="M225.9 202.9L254.1 240.9L293.1 218.1Z" fill="#9c498d" stroke="#9c498d"></path><path d="M283.4 246.1L254.1 240.9L301.4 297.4Z" fill="#5e4a8f" stroke="#5e4a8f"></path><path d="M616.6 426.7L667.9 367.4L599.9 365.7Z" fill="#cd4d79" stroke="#cd4d79"></path><path d="M667.9 367.4L685.1 333.4L595.9 297.1Z" fill="#e79c2a" stroke="#e79c2a"></path><path d="M766.4 210.9L685.1 160.9L663.9 233.9Z" fill="#5e4a8f" stroke="#5e4a8f"></path><path d="M290.1 101.6L290.4 130.6L388.7 108.6Z" fill="#ee8739" stroke="#ee8739"></path><path d="M285.4 149.9L225.9 202.9L293.1 218.1Z" fill="#b74a85" stroke="#b74a85"></path><path d="M644.9 129.6L587.6 62.3L569.6 156.9Z" fill="#de556b" stroke="#de556b"></path><path d="M240.9 358.4L332.4 343.7L298.1 315.4Z" fill="#cd4d79" stroke="#cd4d79"></path><path d="M301.4 450L352.7 450L332.4 343.7Z" fill="#ee744a" stroke="#ee744a"></path><path d="M745.4 279.1L663.9 233.9L673.1 275.1Z" fill="#b74a85" stroke="#b74a85"></path><path d="M644.9 129.6L656.9 53.3L587.6 62.3Z" fill="#ee744a" stroke="#ee744a"></path><path d="M685.1 160.9L680.1 128.6L644.9 129.6Z" fill="#e79c2a" stroke="#e79c2a"></path><path d="M354.4 41.3L290.1 101.6L388.7 108.6Z" fill="#b74a85" stroke="#b74a85"></path><path d="M175.6 118.6L225.9 202.9L285.4 149.9Z" fill="#5e4a8f" stroke="#5e4a8f"></path><path d="M419 15.3L354.4 41.3L388.7 108.6Z" fill="#e9635b" stroke="#e9635b"></path><path d="M513.3 39.3L419 15.3L388.7 108.6Z" fill="#cd4d79" stroke="#cd4d79"></path><path d="M175.6 118.6L285.4 149.9L290.4 130.6Z" fill="#e9635b" stroke="#e9635b"></path><path d="M254.1 240.9L240.9 358.4L298.1 315.4Z" fill="#cd4d79" stroke="#cd4d79"></path><path d="M165.6 282.1L240.9 358.4L254.1 240.9Z" fill="#de556b" stroke="#de556b"></path><path d="M513.3 39.3L463.3 0L419 15.3Z" fill="#7f4a90" stroke="#7f4a90"></path><path d="M602.6 0L463.3 0L513.3 39.3Z" fill="#b74a85" stroke="#b74a85"></path><path d="M239.1 389.7L301.4 450L332.4 343.7Z" fill="#5e4a8f" stroke="#5e4a8f"></path><path d="M463.3 0L430 0L419 15.3Z" fill="#e79c2a" stroke="#e79c2a"></path><path d="M419 15.3L352.7 16.3L354.4 41.3Z" fill="#cd4d79" stroke="#cd4d79"></path><path d="M430 0L409.7 0L419 15.3Z" fill="#b74a85" stroke="#b74a85"></path><path d="M354.4 41.3L300.1 34.3L290.1 101.6Z" fill="#b74a85" stroke="#b74a85"></path><path d="M409.7 0L352.7 16.3L419 15.3Z" fill="#cd4d79" stroke="#cd4d79"></path><path d="M728.4 360.7L745.4 279.1L685.1 333.4Z" fill="#b74a85" stroke="#b74a85"></path><path d="M685.1 333.4L745.4 279.1L673.1 275.1Z" fill="#5e4a8f" stroke="#5e4a8f"></path><path d="M685.1 160.9L734.4 136.6L680.1 128.6Z" fill="#394989" stroke="#394989"></path><path d="M728.4 360.7L685.1 333.4L667.9 367.4Z" fill="#ee744a" stroke="#ee744a"></path><path d="M161.9 450L239.1 389.7L240.9 358.4Z" fill="#ee8739" stroke="#ee8739"></path><path d="M240.9 358.4L239.1 389.7L332.4 343.7Z" fill="#ee744a" stroke="#ee744a"></path><path d="M736.1 72.3L656.9 53.3L680.1 128.6Z" fill="#e9635b" stroke="#e9635b"></path><path d="M680.1 128.6L656.9 53.3L644.9 129.6Z" fill="#de556b" stroke="#de556b"></path><path d="M587.6 62.3L602.6 0L513.3 39.3Z" fill="#ee8739" stroke="#ee8739"></path><path d="M741.1 404.7L728.4 360.7L667.9 367.4Z" fill="#e79c2a" stroke="#e79c2a"></path><path d="M352.7 16.3L300.1 34.3L354.4 41.3Z" fill="#9c498d" stroke="#9c498d"></path><path d="M290.1 101.6L175.6 118.6L290.4 130.6Z" fill="#b74a85" stroke="#b74a85"></path><path d="M239.1 389.7L240.9 415.7L301.4 450Z" fill="#ee8739" stroke="#ee8739"></path><path d="M232.1 450L240.9 415.7L161.9 450Z" fill="#e9635b" stroke="#e9635b"></path><path d="M616.6 426.7L683.9 450L667.9 367.4Z" fill="#9c498d" stroke="#9c498d"></path><path d="M543.6 450L683.9 450L616.6 426.7Z" fill="#b74a85" stroke="#b74a85"></path><path d="M409.7 0L352.4 0L352.7 16.3Z" fill="#ee744a" stroke="#ee744a"></path><path d="M352.7 16.3L306.1 0L300.1 34.3Z" fill="#9c498d" stroke="#9c498d"></path><path d="M766.4 210.9L734.4 136.6L685.1 160.9Z" fill="#5e4a8f" stroke="#5e4a8f"></path><path d="M614.9 0L602.6 0L587.6 62.3Z" fill="#5e4a8f" stroke="#5e4a8f"></path><path d="M175.6 118.6L185.9 237.1L225.9 202.9Z" fill="#7f4a90" stroke="#7f4a90"></path><path d="M225.9 202.9L185.9 237.1L254.1 240.9Z" fill="#b74a85" stroke="#b74a85"></path><path d="M656.9 53.3L614.9 0L587.6 62.3Z" fill="#ee744a" stroke="#ee744a"></path><path d="M654.1 0L614.9 0L656.9 53.3Z" fill="#7f4a90" stroke="#7f4a90"></path><path d="M789.4 284.4L766.4 210.9L745.4 279.1Z" fill="#e9635b" stroke="#e9635b"></path><path d="M745.4 279.1L766.4 210.9L663.9 233.9Z" fill="#e79c2a" stroke="#e79c2a"></path><path d="M683.9 450L741.1 404.7L667.9 367.4Z" fill="#de556b" stroke="#de556b"></path><path d="M728.4 360.7L789.4 284.4L745.4 279.1Z" fill="#5e4a8f" stroke="#5e4a8f"></path><path d="M352.4 0L306.1 0L352.7 16.3Z" fill="#394989" stroke="#394989"></path><path d="M300.1 34.3L230.9 53.3L290.1 101.6Z" fill="#7f4a90" stroke="#7f4a90"></path><path d="M161.9 450L240.9 415.7L239.1 389.7Z" fill="#9c498d" stroke="#9c498d"></path><path d="M240.9 415.7L232.1 450L301.4 450Z" fill="#de556b" stroke="#de556b"></path><path d="M185.9 237.1L165.6 282.1L254.1 240.9Z" fill="#e79c2a" stroke="#e79c2a"></path><path d="M683.9 450L721.1 450L741.1 404.7Z" fill="#b74a85" stroke="#b74a85"></path><path d="M736.1 72.3L654.1 0L656.9 53.3Z" fill="#ee744a" stroke="#ee744a"></path><path d="M835.7 372.7L789.4 284.4L728.4 360.7Z" fill="#de556b" stroke="#de556b"></path><path d="M240.9 0L230.9 53.3L300.1 34.3Z" fill="#cd4d79" stroke="#cd4d79"></path><path d="M185.9 237.1L106.6 180.9L165.6 282.1Z" fill="#5e4a8f" stroke="#5e4a8f"></path><path d="M766.4 210.9L784.7 179.9L734.4 136.6Z" fill="#ee744a" stroke="#ee744a"></path><path d="M734.4 136.6L736.1 72.3L680.1 128.6Z" fill="#de556b" stroke="#de556b"></path><path d="M839.7 281.4L784.7 179.9L766.4 210.9Z" fill="#e9635b" stroke="#e9635b"></path><path d="M800.4 103.3L736.1 72.3L734.4 136.6Z" fill="#394989" stroke="#394989"></path><path d="M230.9 53.3L175.6 118.6L290.1 101.6Z" fill="#394989" stroke="#394989"></path><path d="M123.6 44.3L180.9 80.6L230.9 53.3Z" fill="#7f4a90" stroke="#7f4a90"></path><path d="M230.9 53.3L180.9 80.6L175.6 118.6Z" fill="#e9635b" stroke="#e9635b"></path><path d="M306.1 0L240.9 0L300.1 34.3Z" fill="#b74a85" stroke="#b74a85"></path><path d="M835.7 372.7L829.7 284.1L789.4 284.4Z" fill="#ee8739" stroke="#ee8739"></path><path d="M789.4 284.4L829.7 284.1L766.4 210.9Z" fill="#e9635b" stroke="#e9635b"></path><path d="M835.7 372.7L728.4 360.7L741.1 404.7Z" fill="#ee8739" stroke="#ee8739"></path><path d="M833.7 112.3L800.4 103.3L784.7 179.9Z" fill="#e79c2a" stroke="#e79c2a"></path><path d="M784.7 179.9L800.4 103.3L734.4 136.6Z" fill="#de556b" stroke="#de556b"></path><path d="M736.1 72.3L764.4 0L654.1 0Z" fill="#5e4a8f" stroke="#5e4a8f"></path><path d="M721.1 450L778.4 450L741.1 404.7Z" fill="#e9635b" stroke="#e9635b"></path><path d="M835.7 372.7L839.7 281.4L829.7 284.1Z" fill="#e79c2a" stroke="#e79c2a"></path><path d="M829.7 284.1L839.7 281.4L766.4 210.9Z" fill="#b74a85" stroke="#b74a85"></path><path d="M165.6 282.1L161.9 450L240.9 358.4Z" fill="#7f4a90" stroke="#7f4a90"></path><path d="M114.3 140.6L106.6 180.9L175.6 118.6Z" fill="#394989" stroke="#394989"></path><path d="M175.6 118.6L106.6 180.9L185.9 237.1Z" fill="#ee744a" stroke="#ee744a"></path><path d="M165.6 282.1L77.6 334.4L161.9 450Z" fill="#ee744a" stroke="#ee744a"></path><path d="M778.4 450L835.7 372.7L741.1 404.7Z" fill="#e79c2a" stroke="#e79c2a"></path><path d="M123.6 44.3L114.3 140.6L175.6 118.6Z" fill="#394989" stroke="#394989"></path><path d="M123.6 44.3L175.6 118.6L180.9 80.6Z" fill="#e9635b" stroke="#e9635b"></path><path d="M872.7 131.6L833.7 112.3L784.7 179.9Z" fill="#7f4a90" stroke="#7f4a90"></path><path d="M800.4 103.3L764.4 0L736.1 72.3Z" fill="#394989" stroke="#394989"></path><path d="M813.7 0L764.4 0L800.4 103.3Z" fill="#b74a85" stroke="#b74a85"></path><path d="M45.3 228.9L77.6 334.4L165.6 282.1Z" fill="#e9635b" stroke="#e9635b"></path><path d="M240.9 0L123.6 44.3L230.9 53.3Z" fill="#b74a85" stroke="#b74a85"></path><path d="M0 197.9L45.3 228.9L106.6 180.9Z" fill="#e9635b" stroke="#e9635b"></path><path d="M106.6 180.9L45.3 228.9L165.6 282.1Z" fill="#b74a85" stroke="#b74a85"></path><path d="M900 166.9L872.7 131.6L784.7 179.9Z" fill="#b74a85" stroke="#b74a85"></path><path d="M833.7 112.3L813.7 0L800.4 103.3Z" fill="#cd4d79" stroke="#cd4d79"></path><path d="M900 216.1L784.7 179.9L839.7 281.4Z" fill="#7f4a90" stroke="#7f4a90"></path><path d="M77.6 334.4L93.6 423.7L161.9 450Z" fill="#de556b" stroke="#de556b"></path><path d="M900 83.6L813.7 0L833.7 112.3Z" fill="#394989" stroke="#394989"></path><path d="M900 306.4L900 216.1L839.7 281.4Z" fill="#b74a85" stroke="#b74a85"></path><path d="M835.7 372.7L900 306.4L839.7 281.4Z" fill="#7f4a90" stroke="#7f4a90"></path><path d="M900 437.7L900 306.4L835.7 372.7Z" fill="#9c498d" stroke="#9c498d"></path><path d="M0 197.9L106.6 180.9L0 140.6Z" fill="#5e4a8f" stroke="#5e4a8f"></path><path d="M76.6 450L83.3 450L93.6 423.7Z" fill="#e9635b" stroke="#e9635b"></path><path d="M900 216.1L900 166.9L784.7 179.9Z" fill="#e9635b" stroke="#e9635b"></path><path d="M872.7 131.6L900 105.3L833.7 112.3Z" fill="#9c498d" stroke="#9c498d"></path><path d="M76.6 450L93.6 423.7L15.3 384.7Z" fill="#e79c2a" stroke="#e79c2a"></path><path d="M93.6 423.7L83.3 450L161.9 450Z" fill="#ee744a" stroke="#ee744a"></path><path d="M778.4 450L871.7 450L835.7 372.7Z" fill="#cd4d79" stroke="#cd4d79"></path><path d="M15.3 384.7L93.6 423.7L77.6 334.4Z" fill="#e9635b" stroke="#e9635b"></path><path d="M240.9 0L113.6 0L123.6 44.3Z" fill="#7f4a90" stroke="#7f4a90"></path><path d="M123.6 44.3L46.3 65.3L114.3 140.6Z" fill="#de556b" stroke="#de556b"></path><path d="M900 166.9L900 105.3L872.7 131.6Z" fill="#5e4a8f" stroke="#5e4a8f"></path><path d="M900 105.3L900 83.6L833.7 112.3Z" fill="#cd4d79" stroke="#cd4d79"></path><path d="M871.7 450L900 437.7L835.7 372.7Z" fill="#ee8739" stroke="#ee8739"></path><path d="M45.3 228.9L12.3 269.1L77.6 334.4Z" fill="#de556b" stroke="#de556b"></path><path d="M0 252.1L12.3 269.1L45.3 228.9Z" fill="#cd4d79" stroke="#cd4d79"></path><path d="M12.3 269.1L18.3 345.4L77.6 334.4Z" fill="#cd4d79" stroke="#cd4d79"></path><path d="M871.7 450L900 450L900 437.7Z" fill="#cd4d79" stroke="#cd4d79"></path><path d="M51.3 0L46.3 65.3L123.6 44.3Z" fill="#ee8739" stroke="#ee8739"></path><path d="M0 197.9L0 252.1L45.3 228.9Z" fill="#7f4a90" stroke="#7f4a90"></path><path d="M12.3 269.1L0 352.4L18.3 345.4Z" fill="#9c498d" stroke="#9c498d"></path><path d="M0 352.4L15.3 384.7L18.3 345.4Z" fill="#394989" stroke="#394989"></path><path d="M18.3 345.4L15.3 384.7L77.6 334.4Z" fill="#cd4d79" stroke="#cd4d79"></path><path d="M0 140.6L106.6 180.9L114.3 140.6Z" fill="#de556b" stroke="#de556b"></path><path d="M0 252.1L0 352.4L12.3 269.1Z" fill="#ee8739" stroke="#ee8739"></path><path d="M0 114.3L0 140.6L114.3 140.6Z" fill="#5e4a8f" stroke="#5e4a8f"></path><path d="M113.6 0L51.3 0L123.6 44.3Z" fill="#de556b" stroke="#de556b"></path><path d="M46.3 65.3L0 114.3L114.3 140.6Z" fill="#ee8739" stroke="#ee8739"></path><path d="M900 83.6L900 0L813.7 0Z" fill="#ee8739" stroke="#ee8739"></path><path d="M0 0L0 114.3L46.3 65.3Z" fill="#7f4a90" stroke="#7f4a90"></path><path d="M0 352.4L0 432.7L15.3 384.7Z" fill="#ee8739" stroke="#ee8739"></path><path d="M15.3 384.7L0 432.7L76.6 450Z" fill="#ee744a" stroke="#ee744a"></path><path d="M0 432.7L0 450L76.6 450Z" fill="#394989" stroke="#394989"></path><path d="M51.3 0L0 0L46.3 65.3Z" fill="#de556b" stroke="#de556b"></path></g></svg>