<svg id="visual" viewBox="0 0 900 450" width="900" height="450" xmlns="http://www.w3.org/2000/svg" xmlns:xlink="http://www.w3.org/1999/xlink" version="1.1"><g stroke-width="1" stroke-linejoin="bevel"><path d="M476 203.9L516.3 170.9L483 127.6Z" fill="#7594c7" stroke="#7594c7"></path><path d="M516.3 170.9L512.3 141.6L483 127.6Z" fill="#7594c7" stroke="#7594c7"></path><path d="M483 127.6L410.7 210.1L476 203.9Z" fill="#7594c7" stroke="#7594c7"></path><path d="M516.3 170.9L548.3 110.3L512.3 141.6Z" fill="#627eb6" stroke="#627eb6"></path><path d="M512.3 141.6L548.3 110.3L483 127.6Z" fill="#415392" stroke="#415392"></path><path d="M459 20.3L431.7 80.6L483 127.6Z" fill="#6b89bf" stroke="#6b89bf"></path><path d="M483 127.6L373.7 107.3L410.7 210.1Z" fill="#485e9b" stroke="#485e9b"></path><path d="M612.6 245.1L593.6 157.9L516.3 170.9Z" fill="#5973ad" stroke="#5973ad"></path><path d="M516.3 170.9L593.6 157.9L548.3 110.3Z" fill="#5168a4" stroke="#5168a4"></path><path d="M431.7 80.6L373.7 107.3L483 127.6Z" fill="#415392" stroke="#415392"></path><path d="M593.6 157.9L578.6 98.3L548.3 110.3Z" fill="#485e9b" stroke="#485e9b"></path><path d="M548.3 110.3L459 20.3L483 127.6Z" fill="#6b89bf" stroke="#6b89bf"></path><path d="M354.7 198.9L407 263.1L410.7 210.1Z" fill="#627eb6" stroke="#627eb6"></path><path d="M410.7 210.1L407 263.1L476 203.9Z" fill="#5168a4" stroke="#5168a4"></path><path d="M476 203.9L547.6 270.4L516.3 170.9Z" fill="#627eb6" stroke="#627eb6"></path><path d="M484 312.4L547.6 270.4L476 203.9Z" fill="#394989" stroke="#394989"></path><path d="M373.7 107.3L354.7 198.9L410.7 210.1Z" fill="#93b5e1" stroke="#93b5e1"></path><path d="M672.1 176.9L610.6 138.6L593.6 157.9Z" fill="#627eb6" stroke="#627eb6"></path><path d="M593.6 157.9L610.6 138.6L578.6 98.3Z" fill="#88aad8" stroke="#88aad8"></path><path d="M498 0L459 20.3L548.3 110.3Z" fill="#627eb6" stroke="#627eb6"></path><path d="M431.7 80.6L413.7 0L373.7 107.3Z" fill="#6b89bf" stroke="#6b89bf"></path><path d="M610.6 138.6L597.9 80.6L578.6 98.3Z" fill="#5973ad" stroke="#5973ad"></path><path d="M535.6 0L498 0L548.3 110.3Z" fill="#627eb6" stroke="#627eb6"></path><path d="M407 263.1L484 312.4L476 203.9Z" fill="#7594c7" stroke="#7594c7"></path><path d="M484 312.4L549.3 299.1L547.6 270.4Z" fill="#394989" stroke="#394989"></path><path d="M547.6 270.4L612.6 245.1L516.3 170.9Z" fill="#88aad8" stroke="#88aad8"></path><path d="M549.3 299.1L612.6 245.1L547.6 270.4Z" fill="#627eb6" stroke="#627eb6"></path><path d="M484 312.4L545.3 310.4L549.3 299.1Z" fill="#6b89bf" stroke="#6b89bf"></path><path d="M669.9 293.4L628.9 246.1L661.1 324.4Z" fill="#394989" stroke="#394989"></path><path d="M373.7 107.3L314.4 176.6L354.7 198.9Z" fill="#627eb6" stroke="#627eb6"></path><path d="M354.7 198.9L298.4 213.9L407 263.1Z" fill="#5973ad" stroke="#5973ad"></path><path d="M535.6 0L548.3 110.3L578.6 98.3Z" fill="#5168a4" stroke="#5168a4"></path><path d="M628.9 246.1L612.6 245.1L661.1 324.4Z" fill="#6b89bf" stroke="#6b89bf"></path><path d="M612.6 245.1L652.9 213.9L593.6 157.9Z" fill="#415392" stroke="#415392"></path><path d="M552.3 0L535.6 0L578.6 98.3Z" fill="#6b89bf" stroke="#6b89bf"></path><path d="M498 0L413.7 0L459 20.3Z" fill="#93b5e1" stroke="#93b5e1"></path><path d="M459 20.3L413.7 0L431.7 80.6Z" fill="#485e9b" stroke="#485e9b"></path><path d="M373.7 107.3L270.1 86.3L314.4 176.6Z" fill="#5168a4" stroke="#5168a4"></path><path d="M628.9 246.1L652.9 213.9L612.6 245.1Z" fill="#394989" stroke="#394989"></path><path d="M610.6 138.6L671.1 151.6L597.9 80.6Z" fill="#7e9fd0" stroke="#7e9fd0"></path><path d="M597.9 80.6L552.3 0L578.6 98.3Z" fill="#627eb6" stroke="#627eb6"></path><path d="M404.7 359.4L488.3 350.7L484 312.4Z" fill="#5168a4" stroke="#5168a4"></path><path d="M484 312.4L488.3 350.7L545.3 310.4Z" fill="#485e9b" stroke="#485e9b"></path><path d="M404.7 359.4L484 312.4L407 263.1Z" fill="#627eb6" stroke="#627eb6"></path><path d="M314.4 176.6L298.4 213.9L354.7 198.9Z" fill="#5168a4" stroke="#5168a4"></path><path d="M672.1 176.9L671.1 151.6L610.6 138.6Z" fill="#5973ad" stroke="#5973ad"></path><path d="M597.9 80.6L651.9 25.3L552.3 0Z" fill="#7594c7" stroke="#7594c7"></path><path d="M652.9 213.9L672.1 176.9L593.6 157.9Z" fill="#415392" stroke="#415392"></path><path d="M366.4 348.4L404.7 359.4L407 263.1Z" fill="#5973ad" stroke="#5973ad"></path><path d="M340.7 344.7L366.4 348.4L407 263.1Z" fill="#7594c7" stroke="#7594c7"></path><path d="M296.4 22.3L270.1 86.3L373.7 107.3Z" fill="#7e9fd0" stroke="#7e9fd0"></path><path d="M314.4 176.6L240.1 161.9L298.4 213.9Z" fill="#5973ad" stroke="#5973ad"></path><path d="M671.1 29.3L651.9 25.3L597.9 80.6Z" fill="#485e9b" stroke="#485e9b"></path><path d="M277.4 306.1L340.7 344.7L407 263.1Z" fill="#6b89bf" stroke="#6b89bf"></path><path d="M377.7 450L451 450L404.7 359.4Z" fill="#394989" stroke="#394989"></path><path d="M628.9 246.1L669.9 293.4L652.9 213.9Z" fill="#7594c7" stroke="#7594c7"></path><path d="M652.9 213.9L718.4 206.9L672.1 176.9Z" fill="#7594c7" stroke="#7594c7"></path><path d="M661.1 324.4L612.6 245.1L549.3 299.1Z" fill="#93b5e1" stroke="#93b5e1"></path><path d="M661.1 324.4L549.3 299.1L545.3 310.4Z" fill="#7e9fd0" stroke="#7e9fd0"></path><path d="M413.7 0L296.4 22.3L373.7 107.3Z" fill="#415392" stroke="#415392"></path><path d="M671.1 151.6L671.1 29.3L597.9 80.6Z" fill="#5168a4" stroke="#5168a4"></path><path d="M651.9 25.3L653.9 0L552.3 0Z" fill="#6b89bf" stroke="#6b89bf"></path><path d="M782.4 30.3L671.1 29.3L671.1 151.6Z" fill="#7594c7" stroke="#7594c7"></path><path d="M270.1 86.3L240.1 161.9L314.4 176.6Z" fill="#7e9fd0" stroke="#7e9fd0"></path><path d="M298.4 213.9L277.4 306.1L407 263.1Z" fill="#5168a4" stroke="#5168a4"></path><path d="M657.1 0L653.9 0L651.9 25.3Z" fill="#7594c7" stroke="#7594c7"></path><path d="M591.6 391.7L661.1 324.4L545.3 310.4Z" fill="#485e9b" stroke="#485e9b"></path><path d="M736.1 251.1L718.4 206.9L652.9 213.9Z" fill="#485e9b" stroke="#485e9b"></path><path d="M672.1 176.9L741.4 171.6L671.1 151.6Z" fill="#485e9b" stroke="#485e9b"></path><path d="M736.1 251.1L652.9 213.9L669.9 293.4Z" fill="#7594c7" stroke="#7594c7"></path><path d="M671.1 29.3L657.1 0L651.9 25.3Z" fill="#6b89bf" stroke="#6b89bf"></path><path d="M239.1 264.1L277.4 306.1L298.4 213.9Z" fill="#415392" stroke="#415392"></path><path d="M413.7 0L296.4 0L296.4 22.3Z" fill="#88aad8" stroke="#88aad8"></path><path d="M296.4 22.3L251.1 0L270.1 86.3Z" fill="#394989" stroke="#394989"></path><path d="M270.1 86.3L223.9 144.6L240.1 161.9Z" fill="#5168a4" stroke="#5168a4"></path><path d="M493 435.7L591.6 391.7L488.3 350.7Z" fill="#7e9fd0" stroke="#7e9fd0"></path><path d="M488.3 350.7L591.6 391.7L545.3 310.4Z" fill="#627eb6" stroke="#627eb6"></path><path d="M340.7 344.7L355.4 425.7L366.4 348.4Z" fill="#93b5e1" stroke="#93b5e1"></path><path d="M277.4 306.1L289.1 333.4L340.7 344.7Z" fill="#6b89bf" stroke="#6b89bf"></path><path d="M211.1 146.6L223.9 144.6L162.9 42.3Z" fill="#627eb6" stroke="#627eb6"></path><path d="M240.1 161.9L239.1 264.1L298.4 213.9Z" fill="#6b89bf" stroke="#6b89bf"></path><path d="M211.1 146.6L239.1 264.1L240.1 161.9Z" fill="#485e9b" stroke="#485e9b"></path><path d="M216.9 361.4L289.1 357.7L289.1 333.4Z" fill="#485e9b" stroke="#485e9b"></path><path d="M736.1 251.1L741.4 171.6L718.4 206.9Z" fill="#6b89bf" stroke="#6b89bf"></path><path d="M718.4 206.9L741.4 171.6L672.1 176.9Z" fill="#93b5e1" stroke="#93b5e1"></path><path d="M671.1 29.3L776.4 0L657.1 0Z" fill="#93b5e1" stroke="#93b5e1"></path><path d="M162.9 42.3L223.9 144.6L270.1 86.3Z" fill="#5168a4" stroke="#5168a4"></path><path d="M223.9 144.6L211.1 146.6L240.1 161.9Z" fill="#5973ad" stroke="#5973ad"></path><path d="M216.9 361.4L289.1 333.4L277.4 306.1Z" fill="#485e9b" stroke="#485e9b"></path><path d="M289.1 333.4L289.1 357.7L340.7 344.7Z" fill="#5973ad" stroke="#5973ad"></path><path d="M451 450L493 435.7L488.3 350.7Z" fill="#627eb6" stroke="#627eb6"></path><path d="M451 450L488.3 350.7L404.7 359.4Z" fill="#93b5e1" stroke="#93b5e1"></path><path d="M725.4 309.1L736.1 251.1L669.9 293.4Z" fill="#394989" stroke="#394989"></path><path d="M296.4 0L251.1 0L296.4 22.3Z" fill="#627eb6" stroke="#627eb6"></path><path d="M355.4 425.7L404.7 359.4L366.4 348.4Z" fill="#485e9b" stroke="#485e9b"></path><path d="M705.1 339.7L669.9 293.4L661.1 324.4Z" fill="#5973ad" stroke="#5973ad"></path><path d="M705.1 339.7L725.4 309.1L669.9 293.4Z" fill="#485e9b" stroke="#485e9b"></path><path d="M647.9 434.7L705.1 339.7L661.1 324.4Z" fill="#485e9b" stroke="#485e9b"></path><path d="M289.1 357.7L355.4 425.7L340.7 344.7Z" fill="#5973ad" stroke="#5973ad"></path><path d="M251.1 0L235.9 0L270.1 86.3Z" fill="#485e9b" stroke="#485e9b"></path><path d="M493 435.7L558.3 450L591.6 391.7Z" fill="#5973ad" stroke="#5973ad"></path><path d="M591.6 391.7L647.9 434.7L661.1 324.4Z" fill="#5973ad" stroke="#5973ad"></path><path d="M451 450L558.3 450L493 435.7Z" fill="#415392" stroke="#415392"></path><path d="M355.4 425.7L377.7 450L404.7 359.4Z" fill="#7e9fd0" stroke="#7e9fd0"></path><path d="M324.4 450L377.7 450L355.4 425.7Z" fill="#7594c7" stroke="#7594c7"></path><path d="M558.3 450L599.6 450L591.6 391.7Z" fill="#485e9b" stroke="#485e9b"></path><path d="M865.7 192.9L790.7 143.6L741.4 171.6Z" fill="#5973ad" stroke="#5973ad"></path><path d="M741.4 171.6L782.4 30.3L671.1 151.6Z" fill="#5973ad" stroke="#5973ad"></path><path d="M796.4 286.4L741.4 171.6L736.1 251.1Z" fill="#485e9b" stroke="#485e9b"></path><path d="M620.9 450L647.9 434.7L591.6 391.7Z" fill="#88aad8" stroke="#88aad8"></path><path d="M705.1 339.7L725.4 397.7L725.4 309.1Z" fill="#394989" stroke="#394989"></path><path d="M599.6 450L620.9 450L591.6 391.7Z" fill="#394989" stroke="#394989"></path><path d="M232.9 388.7L324.4 450L289.1 357.7Z" fill="#394989" stroke="#394989"></path><path d="M289.1 357.7L324.4 450L355.4 425.7Z" fill="#5973ad" stroke="#5973ad"></path><path d="M239.1 264.1L216.9 361.4L277.4 306.1Z" fill="#6b89bf" stroke="#6b89bf"></path><path d="M167.6 333.7L216.9 361.4L239.1 264.1Z" fill="#415392" stroke="#415392"></path><path d="M122.6 92.6L150.9 156.9L211.1 146.6Z" fill="#7e9fd0" stroke="#7e9fd0"></path><path d="M211.1 146.6L150.9 156.9L239.1 264.1Z" fill="#93b5e1" stroke="#93b5e1"></path><path d="M216.9 361.4L232.9 388.7L289.1 357.7Z" fill="#5168a4" stroke="#5168a4"></path><path d="M790.7 143.6L782.4 30.3L741.4 171.6Z" fill="#415392" stroke="#415392"></path><path d="M235.9 0L162.9 42.3L270.1 86.3Z" fill="#485e9b" stroke="#485e9b"></path><path d="M647.9 434.7L725.4 397.7L705.1 339.7Z" fill="#627eb6" stroke="#627eb6"></path><path d="M725.4 309.1L796.4 286.4L736.1 251.1Z" fill="#93b5e1" stroke="#93b5e1"></path><path d="M703.1 450L725.4 397.7L647.9 434.7Z" fill="#7594c7" stroke="#7594c7"></path><path d="M830.7 364.7L796.4 286.4L725.4 309.1Z" fill="#88aad8" stroke="#88aad8"></path><path d="M782.4 30.3L776.4 0L671.1 29.3Z" fill="#7594c7" stroke="#7594c7"></path><path d="M106.3 194.9L161.6 303.1L239.1 264.1Z" fill="#415392" stroke="#415392"></path><path d="M216.9 361.4L173.6 371.4L232.9 388.7Z" fill="#415392" stroke="#415392"></path><path d="M122.6 92.6L128.6 152.9L150.9 156.9Z" fill="#88aad8" stroke="#88aad8"></path><path d="M106.3 194.9L144.9 309.1L161.6 303.1Z" fill="#93b5e1" stroke="#93b5e1"></path><path d="M144.9 309.1L167.6 333.7L161.6 303.1Z" fill="#485e9b" stroke="#485e9b"></path><path d="M161.6 303.1L167.6 333.7L239.1 264.1Z" fill="#93b5e1" stroke="#93b5e1"></path><path d="M790.7 143.6L814.7 53.3L782.4 30.3Z" fill="#5168a4" stroke="#5168a4"></path><path d="M782.4 30.3L848.7 0L776.4 0Z" fill="#415392" stroke="#415392"></path><path d="M900 113.3L814.7 53.3L790.7 143.6Z" fill="#7594c7" stroke="#7594c7"></path><path d="M620.9 450L703.1 450L647.9 434.7Z" fill="#5973ad" stroke="#5973ad"></path><path d="M725.4 397.7L830.7 364.7L725.4 309.1Z" fill="#415392" stroke="#415392"></path><path d="M106.3 194.9L239.1 264.1L150.9 156.9Z" fill="#5168a4" stroke="#5168a4"></path><path d="M162.9 42.3L122.6 92.6L211.1 146.6Z" fill="#7e9fd0" stroke="#7e9fd0"></path><path d="M62.3 345.4L173.6 371.4L167.6 333.7Z" fill="#7594c7" stroke="#7594c7"></path><path d="M167.6 333.7L173.6 371.4L216.9 361.4Z" fill="#627eb6" stroke="#627eb6"></path><path d="M232.9 388.7L235.1 450L324.4 450Z" fill="#93b5e1" stroke="#93b5e1"></path><path d="M128.6 152.9L106.3 194.9L150.9 156.9Z" fill="#394989" stroke="#394989"></path><path d="M73.3 124.6L106.3 194.9L128.6 152.9Z" fill="#394989" stroke="#394989"></path><path d="M191.9 450L235.1 450L232.9 388.7Z" fill="#415392" stroke="#415392"></path><path d="M162.9 42.3L107.6 15.3L122.6 92.6Z" fill="#5168a4" stroke="#5168a4"></path><path d="M122.6 92.6L73.3 124.6L128.6 152.9Z" fill="#5973ad" stroke="#5973ad"></path><path d="M235.9 0L130.6 0L162.9 42.3Z" fill="#88aad8" stroke="#88aad8"></path><path d="M869.7 205.1L865.7 192.9L796.4 286.4Z" fill="#415392" stroke="#415392"></path><path d="M796.4 286.4L865.7 192.9L741.4 171.6Z" fill="#485e9b" stroke="#485e9b"></path><path d="M900 218.1L869.7 205.1L900 227.9Z" fill="#6b89bf" stroke="#6b89bf"></path><path d="M130.6 0L107.6 15.3L162.9 42.3Z" fill="#415392" stroke="#415392"></path><path d="M116.3 0L107.6 15.3L130.6 0Z" fill="#627eb6" stroke="#627eb6"></path><path d="M141.6 450L191.9 450L173.6 371.4Z" fill="#627eb6" stroke="#627eb6"></path><path d="M173.6 371.4L191.9 450L232.9 388.7Z" fill="#415392" stroke="#415392"></path><path d="M141.6 450L173.6 371.4L103.3 427.7Z" fill="#627eb6" stroke="#627eb6"></path><path d="M789.4 450L830.7 364.7L725.4 397.7Z" fill="#6b89bf" stroke="#6b89bf"></path><path d="M900 0L848.7 0L814.7 53.3Z" fill="#627eb6" stroke="#627eb6"></path><path d="M814.7 53.3L848.7 0L782.4 30.3Z" fill="#5973ad" stroke="#5973ad"></path><path d="M900 113.3L790.7 143.6L865.7 192.9Z" fill="#5168a4" stroke="#5168a4"></path><path d="M43.3 75.3L73.3 124.6L122.6 92.6Z" fill="#485e9b" stroke="#485e9b"></path><path d="M62.3 345.4L167.6 333.7L144.9 309.1Z" fill="#5168a4" stroke="#5168a4"></path><path d="M703.1 450L789.4 450L725.4 397.7Z" fill="#88aad8" stroke="#88aad8"></path><path d="M900 218.1L900 173.6L869.7 205.1Z" fill="#7e9fd0" stroke="#7e9fd0"></path><path d="M869.7 205.1L900 173.6L865.7 192.9Z" fill="#394989" stroke="#394989"></path><path d="M900 342.7L860.7 344.4L900 347.4Z" fill="#394989" stroke="#394989"></path><path d="M830.7 364.7L860.7 344.4L796.4 286.4Z" fill="#627eb6" stroke="#627eb6"></path><path d="M900 173.6L900 113.3L865.7 192.9Z" fill="#5973ad" stroke="#5973ad"></path><path d="M900 227.9L869.7 205.1L796.4 286.4Z" fill="#415392" stroke="#415392"></path><path d="M860.7 344.4L900 227.9L796.4 286.4Z" fill="#88aad8" stroke="#88aad8"></path><path d="M62.3 345.4L144.9 309.1L32.3 267.1Z" fill="#6b89bf" stroke="#6b89bf"></path><path d="M107.6 15.3L43.3 75.3L122.6 92.6Z" fill="#627eb6" stroke="#627eb6"></path><path d="M32.3 267.1L144.9 309.1L106.3 194.9Z" fill="#6b89bf" stroke="#6b89bf"></path><path d="M0 58.3L43.3 75.3L0 0Z" fill="#7594c7" stroke="#7594c7"></path><path d="M900 113.3L900 0L814.7 53.3Z" fill="#7e9fd0" stroke="#7e9fd0"></path><path d="M32.3 267.1L106.3 194.9L0 193.9Z" fill="#394989" stroke="#394989"></path><path d="M900 347.4L860.7 344.4L900 450Z" fill="#7594c7" stroke="#7594c7"></path><path d="M860.7 344.4L900 342.7L900 227.9Z" fill="#415392" stroke="#415392"></path><path d="M0 193.9L106.3 194.9L73.3 124.6Z" fill="#485e9b" stroke="#485e9b"></path><path d="M62.3 345.4L103.3 427.7L173.6 371.4Z" fill="#6b89bf" stroke="#6b89bf"></path><path d="M900 450L860.7 344.4L830.7 364.7Z" fill="#7594c7" stroke="#7594c7"></path><path d="M789.4 450L847.7 450L830.7 364.7Z" fill="#7e9fd0" stroke="#7e9fd0"></path><path d="M43.3 75.3L0 144.6L73.3 124.6Z" fill="#394989" stroke="#394989"></path><path d="M32.3 267.1L0 292.4L62.3 345.4Z" fill="#5168a4" stroke="#5168a4"></path><path d="M0 144.6L0 193.9L73.3 124.6Z" fill="#88aad8" stroke="#88aad8"></path><path d="M43.3 75.3L0 58.3L0 144.6Z" fill="#5168a4" stroke="#5168a4"></path><path d="M0 0L43.3 75.3L107.6 15.3Z" fill="#485e9b" stroke="#485e9b"></path><path d="M0 193.9L0 287.1L32.3 267.1Z" fill="#485e9b" stroke="#485e9b"></path><path d="M62.3 345.4L16.3 450L103.3 427.7Z" fill="#93b5e1" stroke="#93b5e1"></path><path d="M0 287.1L0 292.4L32.3 267.1Z" fill="#415392" stroke="#415392"></path><path d="M116.3 0L0 0L107.6 15.3Z" fill="#88aad8" stroke="#88aad8"></path><path d="M847.7 450L900 450L830.7 364.7Z" fill="#485e9b" stroke="#485e9b"></path><path d="M0 292.4L0 372.7L62.3 345.4Z" fill="#7594c7" stroke="#7594c7"></path><path d="M103.3 427.7L16.3 450L141.6 450Z" fill="#394989" stroke="#394989"></path><path d="M0 372.7L16.3 450L62.3 345.4Z" fill="#415392" stroke="#415392"></path><path d="M0 372.7L0 450L16.3 450Z" fill="#88aad8" stroke="#88aad8"></path></g></svg>