<svg id="visual" viewBox="0 0 540 960" width="540" height="960" xmlns="http://www.w3.org/2000/svg" xmlns:xlink="http://www.w3.org/1999/xlink" version="1.1"><rect x="0" y="0" width="540" height="960" fill="#e79c2a"></rect><path d="M0 352L12.8 340.3C25.7 328.7 51.3 305.3 77 311.5C102.7 317.7 128.3 353.3 154 359.3C179.7 365.3 205.3 341.7 231.2 323C257 304.3 283 290.7 308.8 292.3C334.7 294 360.3 311 386 307.8C411.7 304.7 437.3 281.3 463 285C488.7 288.7 514.3 319.3 527.2 334.7L540 350L540 0L527.2 0C514.3 0 488.7 0 463 0C437.3 0 411.7 0 386 0C360.3 0 334.7 0 308.8 0C283 0 257 0 231.2 0C205.3 0 179.7 0 154 0C128.3 0 102.7 0 77 0C51.3 0 25.7 0 12.8 0L0 0Z" fill="#e79c2a"></path><path d="M0 279L12.8 269.2C25.7 259.3 51.3 239.7 77 235.8C102.7 232 128.3 244 154 256.2C179.7 268.3 205.3 280.7 231.2 286.8C257 293 283 293 308.8 288.2C334.7 283.3 360.3 273.7 386 272.3C411.7 271 437.3 278 463 286.7C488.7 295.3 514.3 305.7 527.2 310.8L540 316L540 0L527.2 0C514.3 0 488.7 0 463 0C437.3 0 411.7 0 386 0C360.3 0 334.7 0 308.8 0C283 0 257 0 231.2 0C205.3 0 179.7 0 154 0C128.3 0 102.7 0 77 0C51.3 0 25.7 0 12.8 0L0 0Z" fill="#ed6b53"></path><path d="M0 226L12.8 224.3C25.7 222.7 51.3 219.3 77 206C102.7 192.7 128.3 169.3 154 160.2C179.7 151 205.3 156 231.2 171.2C257 186.3 283 211.7 308.8 218.3C334.7 225 360.3 213 386 211.5C411.7 210 437.3 219 463 228.3C488.7 237.7 514.3 247.3 527.2 252.2L540 257L540 0L527.2 0C514.3 0 488.7 0 463 0C437.3 0 411.7 0 386 0C360.3 0 334.7 0 308.8 0C283 0 257 0 231.2 0C205.3 0 179.7 0 154 0C128.3 0 102.7 0 77 0C51.3 0 25.7 0 12.8 0L0 0Z" fill="#cd4d79"></path><path d="M0 184L12.8 179C25.7 174 51.3 164 77 154.5C102.7 145 128.3 136 154 141.8C179.7 147.7 205.3 168.3 231.2 165.5C257 162.7 283 136.3 308.8 121C334.7 105.7 360.3 101.3 386 101.7C411.7 102 437.3 107 463 120C488.7 133 514.3 154 527.2 164.5L540 175L540 0L527.2 0C514.3 0 488.7 0 463 0C437.3 0 411.7 0 386 0C360.3 0 334.7 0 308.8 0C283 0 257 0 231.2 0C205.3 0 179.7 0 154 0C128.3 0 102.7 0 77 0C51.3 0 25.7 0 12.8 0L0 0Z" fill="#8e4a8f"></path><path d="M0 86L12.8 82.7C25.7 79.3 51.3 72.7 77 77.5C102.7 82.3 128.3 98.7 154 98C179.7 97.3 205.3 79.7 231.2 74.3C257 69 283 76 308.8 79.5C334.7 83 360.3 83 386 85.3C411.7 87.7 437.3 92.3 463 95.5C488.7 98.7 514.3 100.3 527.2 101.2L540 102L540 0L527.2 0C514.3 0 488.7 0 463 0C437.3 0 411.7 0 386 0C360.3 0 334.7 0 308.8 0C283 0 257 0 231.2 0C205.3 0 179.7 0 154 0C128.3 0 102.7 0 77 0C51.3 0 25.7 0 12.8 0L0 0Z" fill="#394989"></path></svg>